<?xml version="1.0" standalone="no"?>
<!DOCTYPE svg PUBLIC "-//W3C//DTD SVG 20010904//EN"
 "http://www.w3.org/TR/2001/REC-SVG-20010904/DTD/svg10.dtd">
<svg version="1.0" xmlns="http://www.w3.org/2000/svg"
 width="163.000000pt" height="65.000000pt" viewBox="0 0 163.000000 65.000000"
 preserveAspectRatio="xMidYMid meet">

<g transform="translate(0.000000,65.000000) scale(0.100000,-0.100000)"
fill="#000000" stroke="none">
<path d="M314 565 c-4 -8 -4 -22 -1 -30 7 -17 2 -20 -38 -29 -25 -5 -32 -3
-40 16 -13 29 -39 30 -43 1 -2 -13 1 -23 7 -23 18 0 13 -22 -11 -47 -20 -21
-23 -22 -39 -7 -10 9 -25 14 -34 11 -22 -9 -18 -38 6 -44 17 -5 20 -11 15 -36
-3 -16 -6 -34 -6 -38 0 -5 -12 -6 -26 -3 -28 7 -46 -9 -37 -33 4 -10 14 -12
34 -8 24 5 29 3 29 -12 0 -10 3 -28 6 -41 5 -17 2 -22 -14 -22 -25 0 -34 -12
-26 -34 8 -20 28 -20 44 -1 12 14 16 13 41 -11 27 -26 28 -29 13 -45 -19 -21
-12 -49 11 -49 8 0 20 11 25 24 8 23 11 24 44 14 31 -10 34 -14 29 -40 -5 -25
-3 -28 22 -28 24 0 26 3 20 29 -5 24 -2 29 17 35 42 11 58 7 58 -14 0 -13 7
-20 20 -20 28 0 37 28 14 44 -17 13 -16 15 12 39 26 23 30 24 46 10 14 -13 20
-13 33 -3 21 18 19 40 -4 40 -28 0 -33 13 -20 49 9 26 16 31 38 29 21 -2 27 2
29 21 3 22 1 23 -26 18 -27 -5 -30 -3 -36 25 -9 44 -8 45 14 51 26 7 28 47 2
47 -10 0 -23 -5 -30 -12 -10 -10 -18 -6 -39 14 -26 26 -26 28 -9 47 20 23 14
41 -15 41 -12 0 -19 -7 -19 -18 0 -27 -7 -30 -46 -18 -30 10 -34 14 -29 35 9
34 -29 58 -41 26z m29 -32 c-4 -25 0 -29 38 -41 44 -14 58 -7 59 26 0 14 16
16 24 3 3 -5 -1 -11 -9 -15 -24 -9 -17 -40 15 -71 29 -28 30 -28 50 -10 11 10
23 15 28 10 4 -4 2 -10 -4 -12 -39 -14 -45 -27 -32 -68 12 -35 17 -40 41 -37
15 1 27 -2 27 -8 0 -5 -13 -10 -30 -10 -26 0 -31 -5 -40 -40 -12 -46 -7 -60
21 -60 20 0 26 -15 10 -24 -5 -3 -14 1 -21 9 -18 22 -33 19 -65 -15 -27 -28
-27 -31 -12 -48 10 -10 14 -22 10 -25 -12 -13 -23 -7 -23 12 0 28 -10 31 -59
19 -40 -10 -43 -13 -37 -39 4 -21 2 -29 -9 -29 -11 0 -13 8 -9 29 6 27 3 30
-32 40 -53 15 -53 15 -64 -15 -6 -14 -15 -22 -21 -19 -7 5 -5 13 5 24 23 25
20 35 -18 69 -27 23 -36 41 -42 77 -6 45 -8 47 -35 43 -19 -3 -29 0 -29 8 0 8
11 12 26 11 22 -2 29 4 40 37 15 43 12 56 -17 56 -20 0 -26 15 -10 24 5 3 14
-1 21 -9 17 -21 23 -19 60 15 32 30 32 31 15 50 -10 11 -15 23 -10 28 4 4 9 3
12 -3 13 -34 21 -38 65 -29 39 9 43 12 41 37 -1 16 3 27 11 27 8 0 11 -10 9
-27z m-209 -338 c-4 -8 -10 -15 -15 -15 -5 0 -9 7 -9 15 0 8 7 15 15 15 9 0
12 -6 9 -15z"/>
<path d="M232 428 c-20 -20 -14 -66 9 -79 27 -14 64 1 72 30 11 44 -49 81 -81
49z m63 -33 c0 -27 -3 -30 -30 -30 -21 0 -31 5 -33 18 -6 33 6 49 35 45 24 -3
28 -8 28 -33z"/>
<path d="M380 395 c-20 -24 4 -45 26 -24 13 14 13 17 1 27 -11 10 -17 9 -27
-3z"/>
<path d="M426 311 c-11 -18 6 -42 28 -39 29 4 29 42 -1 46 -11 2 -24 -1 -27
-7z m36 -16 c0 -5 -5 -11 -11 -13 -6 -2 -11 4 -11 13 0 9 5 15 11 13 6 -2 11
-8 11 -13z"/>
<path d="M195 289 c-14 -43 45 -66 61 -24 8 19 -13 45 -37 45 -10 0 -21 -10
-24 -21z m49 -4 c3 -9 -1 -18 -10 -22 -19 -7 -39 11 -30 26 10 16 33 13 40 -4z"/>
<path d="M311 297 c-24 -29 17 -70 46 -46 8 7 13 22 11 33 -4 25 -40 33 -57
13z m47 -20 c2 -12 -3 -17 -17 -17 -12 0 -21 6 -21 13 0 31 32 34 38 4z"/>
<path d="M382 241 c-8 -4 -12 -19 -10 -32 2 -18 9 -24 28 -24 21 0 25 5 25 30
0 31 -19 42 -43 26z m35 -17 c8 -21 -13 -42 -28 -27 -13 13 -5 43 11 43 6 0
13 -7 17 -16z"/>
<path d="M307 186 c-8 -20 16 -39 30 -25 14 14 6 39 -12 39 -7 0 -15 -6 -18
-14z"/>
</g>
</svg>
